<svg xmlns="http://www.w3.org/2000/svg" width="16" height="16" fill="currentColor" class="bi bi-cloud-sun" viewBox="0 0 16 16"><path d="M7 8a3.5 3.5 0 0 1 3.5 3.5h1A4.5 4.5 0 0 0 7 7v1z"/><path d="M7 8a3.5 3.5 0 0 1-3.5 3.5h-1A4.5 4.5 0 0 0 7 7v1z"/><path fill-rule="evenodd" d="M4.18 4.18A3.5 3.5 0 0 1 7 3a3.5 3.5 0 0 1 2.3 6.3 5 5 0 0 1 3.4 4.8 1 1 0 0 1-2 0 3 3 0 0 0-3-3 3 3 0 0 0-2.3 1.1 3 3 0 0 0-5.4 1.9 3 3 0 0 0 3 3h8a1 1 0 0 1 0 2h-8a5 5 0 0 1-5-5 5 5 0 0 1 1.7-3.8 1 1 0 0 1 1.4 0z"/></svg>
