<svg xmlns="http://www.w3.org/2000/svg" viewBox="0 0 64 64" width="64" height="64">
  <defs>
    <radialGradient id="sun-gradient" cx="24" cy="24" r="20" gradientUnits="userSpaceOnUse">
      <stop offset="0%" stop-color="#FFD700" />
      <stop offset="90%" stop-color="#FFA500" />
    </radialGradient>
    <linearGradient id="cloud-gradient" x1="0%" y1="0%" x2="100%" y2="100%">
      <stop offset="0%" stop-color="#FFFFFF" />
      <stop offset="100%" stop-color="#E6E6E6" />
    </linearGradient>
    <filter id="sun-shadow" x="-20%" y="-20%" width="140%" height="140%">
      <feGaussianBlur in="SourceAlpha" stdDeviation="2" />
      <feOffset dx="0" dy="0" result="offsetblur" />
      <feComponentTransfer>
        <feFuncA type="linear" slope="0.5" />
      </feComponentTransfer>
      <feMerge>
        <feMergeNode />
        <feMergeNode in="SourceGraphic" />
      </feMerge>
    </filter>
    <filter id="cloud-shadow" x="-20%" y="-20%" width="140%" height="140%">
      <feGaussianBlur in="SourceAlpha" stdDeviation="2" />
      <feOffset dx="1" dy="1" result="offsetblur" />
      <feComponentTransfer>
        <feFuncA type="linear" slope="0.3" />
      </feComponentTransfer>
      <feMerge>
        <feMergeNode />
        <feMergeNode in="SourceGraphic" />
      </feMerge>
    </filter>
  </defs>
  
  <!-- Sun (slightly smaller and positioned to the left) -->
  <circle cx="24" cy="24" r="12" fill="url(#sun-gradient)" filter="url(#sun-shadow)" />
  
  <!-- Sun rays -->
  <g transform="translate(0, 0) scale(0.7)">
    <line x1="24" y1="5" x2="24" y2="10" stroke="#FFA500" stroke-width="3" stroke-linecap="round" />
    <line x1="24" y1="38" x2="24" y2="43" stroke="#FFA500" stroke-width="3" stroke-linecap="round" />
    <line x1="43" y1="24" x2="38" y2="24" stroke="#FFA500" stroke-width="3" stroke-linecap="round" />
    <line x1="10" y1="24" x2="5" y2="24" stroke="#FFA500" stroke-width="3" stroke-linecap="round" />
    <line x1="37" y1="11" x2="33" y2="15" stroke="#FFA500" stroke-width="3" stroke-linecap="round" />
    <line x1="15" y1="33" x2="11" y2="37" stroke="#FFA500" stroke-width="3" stroke-linecap="round" />
    <line x1="37" y1="37" x2="33" y2="33" stroke="#FFA500" stroke-width="3" stroke-linecap="round" />
    <line x1="15" y1="15" x2="11" y2="11" stroke="#FFA500" stroke-width="3" stroke-linecap="round" />
  </g>
  
  <!-- Cloud (positioned to the right and slightly overlapping the sun) -->
  <path d="M48,36c0-8.8-7.2-16-16-16c-7.8,0-14.3,5.6-15.7,13c-4.6,0.8-8.3,5-8.3,9.8C8,48.6,12.4,53,18,53h28c5.5,0,10-4.5,10-10
    C56,39.6,52.6,36.8,48,36z" fill="url(#cloud-gradient)" filter="url(#cloud-shadow)" />
</svg> 