<svg xmlns="http://www.w3.org/2000/svg" viewBox="0 0 64 64" width="64" height="64">
  <defs>
    <linearGradient id="cloud-gradient" x1="0%" y1="0%" x2="100%" y2="100%">
      <stop offset="0%" stop-color="#FFFFFF" />
      <stop offset="100%" stop-color="#E6E6E6" />
    </linearGradient>
    <linearGradient id="rain-gradient" x1="0%" y1="0%" x2="0%" y2="100%">
      <stop offset="0%" stop-color="#5AC8FA" />
      <stop offset="100%" stop-color="#007AFF" />
    </linearGradient>
    <filter id="cloud-shadow" x="-20%" y="-20%" width="140%" height="140%">
      <feGaussianBlur in="SourceAlpha" stdDeviation="2" />
      <feOffset dx="1" dy="1" result="offsetblur" />
      <feComponentTransfer>
        <feFuncA type="linear" slope="0.3" />
      </feComponentTransfer>
      <feMerge>
        <feMergeNode />
        <feMergeNode in="SourceGraphic" />
      </feMerge>
    </filter>
  </defs>
  
  <!-- Main cloud -->
  <path d="M48,26c0-8.8-7.2-16-16-16c-7.8,0-14.3,5.6-15.7,13c-4.6,0.8-8.3,5-8.3,9.8C8,38.6,12.4,43,18,43h28c5.5,0,10-4.5,10-10
    C56,29.6,52.6,26.8,48,26z" fill="url(#cloud-gradient)" filter="url(#cloud-shadow)" />
  
  <!-- Rain drops -->
  <g>
    <path d="M24,46c0,1.1-0.9,5-2,5s-2-3.9-2-5s0.9-2,2-2S24,44.9,24,46z" fill="url(#rain-gradient)" />
    <path d="M34,46c0,1.1-0.9,7-2,7s-2-5.9-2-7s0.9-2,2-2S34,44.9,34,46z" fill="url(#rain-gradient)" />
    <path d="M44,46c0,1.1-0.9,5-2,5s-2-3.9-2-5s0.9-2,2-2S44,44.9,44,46z" fill="url(#rain-gradient)" />
    <path d="M14,46c0,1.1-0.9,6-2,6s-2-4.9-2-6s0.9-2,2-2S14,44.9,14,46z" fill="url(#rain-gradient)" />
    
    <animateTransform
      attributeName="transform"
      attributeType="XML"
      type="translate"
      values="0 0; 0 10"
      dur="1.5s"
      repeatCount="indefinite"
    />
  </g>
</svg>